# xmcd
#
# Track frame offsets:
#	150
#	12050
#	28732
#	40265
#	57610
#	68607
#	80395
#	96492
#	108752
#	118145
#	130690
#	146762
#	161080
#	176780
#	189987
#	203375
#	216992
#	228362
#	243602
#
# Disc length: 3535 seconds
#
# Revision: 4
# Processed by: cddbd v1.5.2PL0 Copyright (c) Steve Scherf et al.
# Submitted via: audiograbber 1.83.01
#
DISCID=0b0dcd13
DTITLE=The Byrds - Sweetheart Of The Rodeo
DYEAR=1997
DGENRE=Country
TTITLE0=You Ain't Going Nowhere
TTITLE1=I Am A Pilgrim
TTITLE2=The Christian Life
TTITLE3=You Don't Miss Your Water
TTITLE4=You're Still On My Mind
TTITLE5=Pretty Boy Floyd
TTITLE6=Hickory Wind
TTITLE7=One Hundred Years From Now
TTITLE8=Blue Canadian Rockies
TTITLE9=Life In Prison
TTITLE10=Nothing Was Delivered
TTITLE11=You Got A Reputation
TTITLE12=Lazy Days
TTITLE13=Pretty Polly
TTITLE14=The Christian Life (rehearsal - take #11)
TTITLE15=Life In Prison (rehearsal - take #11)
TTITLE16=You're Still On My Mind (rehearsal - take #43)
TTITLE17=One Hundred Years From Now (rehearsal - take #2)
TTITLE18=All I Have Are Memories (instrumental)
EXTD=YEAR: 1997 ID3G:   2
EXTT0=
EXTT1=
EXTT2=
EXTT3=
EXTT4=
EXTT5=
EXTT6=
EXTT7=
EXTT8=
EXTT9=
EXTT10=
EXTT11=
EXTT12=
EXTT13=
EXTT14=(rehearsal-take #11)
EXTT15=(rehearsal-take #11)
EXTT16=(rehearsal-take #43)
EXTT17=(rehearsal-take #2)
EXTT18=instrumental
PLAYORDER=
